# xmcd
#
# Track frame offsets:
#	150
#	21297
#	38640
#	55032
#
# Disc length: 1308 seconds
#
# Revision: 1
# Processed by: cddbd v1.5.1PL0 Copyright (c) Steve Scherf et al.
# Submitted via: audiograbber 1.82.02
#
DISCID=27051a04
DTITLE=Lonje Moco vs. Niño Aaron - Al Ritmo Dance 3 [CD Maxi Single)
DYEAR=1999
DGENRE=Comedy
TTITLE0=Al Ritmo Dance 3 "La Canción" (Extended mix)
TTITLE1=Al Ritmo Dance 3 "La Canción" (Radio Edit)
TTITLE2=Al Ritmo Dance 3 "La Canción" (Instrumental mix)
TTITLE3=Historias Horribles
EXTD=CDME 743216986026\nLonje Moco y Aarón Abasolo es: Eugenio Derbez
EXTT0=J. Moreno - X. Ten - E. Derbez
EXTT1=J. Moreno - X. Ten - E. Derbez
EXTT2=J. Moreno - X. Ten - E. Derbez
EXTT3=Eugenio Derbez
PLAYORDER=
